<svg id="Layer_1" data-name="Layer 1" xmlns="http://www.w3.org/2000/svg" viewBox="0 0 512 512"><defs><style>.cls-1{fill:#4f3287;}.cls-2{fill:#ab80ff;}.cls-3{fill:#7900ec;}.cls-4{fill:#f0eeff;}</style></defs><path class="cls-1" d="M478.58,378.31h0c0-1.06,0-2.11-.05-3.16,0-.33,0-.65,0-1,0-.73-.06-1.46-.1-2.18,0-.38,0-.76-.07-1.13l-.15-2c0-.37-.07-.75-.1-1.12-.07-.7-.14-1.39-.22-2.09l-.12-1c-.1-.83-.21-1.65-.33-2.47,0-.19-.06-.39-.08-.59-.16-1-.33-2.06-.51-3.08,0-.17-.07-.34-.1-.51-.16-.83-.32-1.67-.49-2.49-.07-.32-.14-.62-.2-.93-.16-.7-.31-1.39-.48-2.08l-.24-1c-.17-.68-.34-1.35-.52-2-.09-.33-.17-.65-.26-1q-.3-1.08-.63-2.16c-.07-.25-.14-.5-.22-.75-.6-1.95-1.25-3.87-2-5.78l-.24-.65-.84-2.16c-.12-.28-.23-.57-.35-.85-.27-.66-.54-1.31-.83-2-.12-.29-.25-.57-.37-.86-.3-.67-.61-1.34-.92-2l-.33-.72c-.39-.82-.79-1.63-1.2-2.44a1.74,1.74,0,0,1-.1-.19,0,0,0,0,1,0,0h0c-.72-1.42-1.48-2.82-2.26-4.2l0-.06c-5.13-9.92-17-35.2-17-56.48s11.9-46.56,17-56.48l0-.06c.78-1.38,1.54-2.78,2.26-4.2h0a0,0,0,0,1,0,0,1.74,1.74,0,0,1,.1-.19c.41-.81.81-1.62,1.2-2.44l.33-.72c.31-.67.62-1.34.92-2,.12-.29.25-.57.37-.86.29-.65.56-1.31.83-2,.12-.29.23-.57.35-.85l.84-2.16.24-.66q1.06-2.85,2-5.77c.08-.25.15-.5.22-.75q.33-1.08.63-2.16c.09-.32.17-.65.26-1,.18-.67.35-1.34.52-2l.24-1c.17-.68.32-1.37.48-2.07.06-.31.13-.62.2-.93.17-.82.33-1.65.49-2.48,0-.18.06-.35.1-.53.18-1,.35-2,.51-3.07,0-.2.05-.4.08-.6q.18-1.22.33-2.46l.12-1c.08-.69.15-1.38.22-2.08,0-.37.06-.75.1-1.13l.15-2c0-.37.05-.75.07-1.13,0-.72.07-1.45.1-2.17,0-.33,0-.65,0-1,0-1.05.05-2.1.05-3.16h0a110.76,110.76,0,0,0-32.34-78.37l-.21-.22-.29-.28a110.75,110.75,0,0,0-78.29-32.27h0c-1.06,0-2.11,0-3.16,0l-1,0-2.18.1-1.13.07-2,.15-1.13.1-2.09.22-1,.12c-.82.1-1.65.21-2.46.33l-.6.09c-1,.15-2.05.32-3.07.51l-.52.09-2.49.49-.93.21c-.69.15-1.39.3-2.07.47l-1,.24-2,.52-1,.26c-.73.2-1.45.41-2.17.63l-.74.22q-2.93.9-5.78,2l-.66.25-2.16.83-.85.35-2,.83-.86.37-2,.92-.73.33c-.82.39-1.63.79-2.44,1.2l-.19.1h0c-1.42.72-2.82,1.48-4.2,2.26l-.06,0c-9.92,5.13-35.2,17-56.48,17s-46.56-11.9-56.48-17l-.06,0c-1.38-.78-2.78-1.54-4.2-2.26h0a1.24,1.24,0,0,1-.2-.1c-.81-.41-1.62-.81-2.44-1.2l-.72-.33-2-.92L189.3,54l-2-.83-.85-.35L184.33,52l-.65-.25c-1.91-.71-3.83-1.36-5.78-2l-.75-.22L175,48.94l-1-.26-2-.52-1-.24c-.69-.17-1.38-.32-2.08-.47l-.92-.21-2.5-.49-.51-.09c-1-.19-2.05-.36-3.08-.51l-.59-.09c-.82-.12-1.64-.23-2.47-.33l-1-.12-2.09-.22-1.12-.1-2-.15-1.12-.07L149.3,45l-1,0c-1,0-2.1,0-3.16,0h0a110.76,110.76,0,0,0-78.3,32.27l-.29.28-.28.29A110.8,110.8,0,0,0,34,156h0c0,1.06,0,2.11,0,3.16,0,.32,0,.65,0,1,0,.73,0,1.46.09,2.18,0,.38,0,.75.07,1.13,0,.68.1,1.36.16,2,0,.38.06.76.1,1.13.06.7.14,1.39.22,2.09,0,.33.07.67.11,1,.1.83.22,1.65.34,2.46,0,.2,0,.4.08.6.15,1,.32,2.05.51,3.07,0,.18.06.35.1.52.15.83.31,1.66.49,2.49.06.31.13.62.2.93.15.7.31,1.39.47,2.08l.24,1c.17.67.34,1.34.52,2,.09.32.18.65.26,1L38.7,188c.08.25.15.5.22.75.6,1.95,1.26,3.87,2,5.77l.25.66q.4,1.08.84,2.16c.11.28.23.56.34.85.27.65.55,1.31.83,2,.12.29.25.57.37.86.3.67.61,1.34.92,2,.11.24.22.48.34.72.39.82.79,1.63,1.2,2.44l.09.19,0,0h0q1.1,2.13,2.26,4.2l0,.06c5.14,9.92,17,35.2,17,56.48s-11.89,46.56-17,56.48l0,.06q-1.17,2.07-2.26,4.2h0l0,0-.09.19c-.41.81-.81,1.62-1.2,2.44-.12.24-.23.48-.34.72-.31.67-.62,1.34-.92,2-.12.29-.25.57-.37.86-.28.65-.56,1.3-.83,2L42,337q-.44,1.08-.84,2.16c-.08.22-.17.44-.25.65-.7,1.91-1.36,3.83-2,5.78-.07.25-.14.5-.22.75l-.63,2.16c-.08.32-.17.64-.26,1-.18.67-.35,1.34-.52,2l-.24,1c-.16.69-.32,1.38-.47,2.08-.07.31-.14.61-.2.93-.18.82-.34,1.66-.49,2.49,0,.17-.07.34-.1.51-.19,1-.36,2-.51,3.08,0,.2-.06.4-.08.59-.12.82-.24,1.64-.34,2.47,0,.33-.08.67-.11,1-.08.7-.16,1.39-.22,2.09,0,.37-.07.75-.1,1.12-.06.68-.11,1.36-.16,2,0,.37-.05.75-.07,1.13,0,.72-.07,1.45-.09,2.18,0,.32,0,.64,0,1,0,1.05,0,2.1,0,3.16h0a110.8,110.8,0,0,0,32.27,78.3,3.83,3.83,0,0,1,.28.29l.22.21a110.76,110.76,0,0,0,78.37,32.34h0c1.06,0,2.11,0,3.16-.05l1,0c.73,0,1.45-.05,2.17-.09l1.13-.07,2-.16,1.14-.1,2.07-.21,1-.12c.82-.1,1.63-.21,2.45-.33l.6-.09c1-.15,2.06-.32,3.08-.51l.52-.1c.83-.15,1.66-.31,2.48-.48l.94-.21c.69-.15,1.38-.3,2.07-.47l1-.24,2-.52,1-.26,2.16-.63.75-.22c1.95-.6,3.87-1.26,5.78-2l.66-.25,2.15-.83.85-.35,2-.83.86-.37,2-.92.73-.34c.82-.39,1.63-.78,2.43-1.19l.21-.1s0,0,0,0h0q2.13-1.09,4.2-2.26l.06,0c9.92-5.14,35.2-17,56.48-17s46.56,11.89,56.48,17l.06,0q2.07,1.17,4.2,2.26h0l.2.1c.81.41,1.62.8,2.43,1.19l.73.34,2,.92.86.37,2,.83.85.35,2.16.83.66.25c1.9.7,3.83,1.36,5.77,2l.76.22,2.15.63,1,.26,2,.52,1,.24c.68.17,1.37.32,2.07.47l.93.21q1.23.25,2.49.48l.52.1c1,.19,2,.36,3.07.51l.6.09,2.46.33,1,.12c.69.07,1.38.15,2.08.21l1.13.1,2,.16,1.13.07c.72,0,1.45.07,2.17.09l1,0c1.05,0,2.1.05,3.16.05h0A111.16,111.16,0,0,0,478.58,378.31Z"/><path class="cls-2" d="M478.58,355.31h0c0-1.06,0-2.11-.05-3.16,0-.32,0-.65,0-1,0-.73-.06-1.46-.1-2.18,0-.38,0-.75-.07-1.13l-.15-2c0-.38-.07-.76-.1-1.13-.07-.7-.14-1.39-.22-2.09l-.12-1c-.1-.82-.21-1.65-.33-2.46,0-.2-.06-.4-.08-.6-.16-1-.33-2.05-.51-3.07,0-.18-.07-.35-.1-.52-.16-.83-.32-1.66-.49-2.49-.07-.31-.14-.62-.2-.93-.16-.69-.31-1.39-.48-2.07l-.24-1c-.17-.67-.34-1.34-.52-2-.09-.32-.17-.64-.26-1-.2-.73-.41-1.45-.63-2.17-.07-.25-.14-.5-.22-.74q-.9-2.93-2-5.78l-.24-.66-.84-2.16c-.12-.28-.23-.56-.35-.85-.27-.65-.54-1.31-.83-2-.12-.29-.25-.57-.37-.86-.3-.67-.61-1.34-.92-2l-.33-.73c-.39-.82-.79-1.63-1.2-2.44a1.74,1.74,0,0,1-.1-.19,0,0,0,0,1,0,0h0c-.72-1.42-1.48-2.82-2.26-4.2l0-.06c-5.13-9.92-17-35.2-17-56.48s11.9-46.56,17-56.48l0-.06c.78-1.38,1.54-2.78,2.26-4.2h0s0,0,0,0a1.24,1.24,0,0,1,.1-.2c.41-.81.81-1.62,1.2-2.44l.33-.72c.31-.67.62-1.34.92-2,.12-.29.25-.57.37-.86.29-.65.56-1.3.83-2,.12-.28.23-.57.35-.85l.84-2.16.24-.65c.71-1.91,1.36-3.83,2-5.78.08-.25.15-.5.22-.75q.33-1.08.63-2.16c.09-.32.17-.64.26-1,.18-.67.35-1.34.52-2l.24-1c.17-.69.32-1.38.48-2.08.06-.31.13-.61.2-.92.17-.83.33-1.66.49-2.49,0-.18.06-.35.1-.52.18-1,.35-2.05.51-3.08,0-.2.05-.4.08-.59q.18-1.23.33-2.46l.12-1c.08-.69.15-1.38.22-2.07,0-.38.06-.76.1-1.14l.15-2c0-.37.05-.75.07-1.13,0-.72.07-1.44.1-2.17,0-.33,0-.65,0-1,0-1.05.05-2.1.05-3.16h0a110.76,110.76,0,0,0-32.34-78.37l-.21-.22-.29-.28a110.79,110.79,0,0,0-78.29-32.27h0c-1.06,0-2.11,0-3.16.05l-1,0c-.73,0-1.46.05-2.18.09l-1.13.07-2,.16-1.13.1c-.7.06-1.39.14-2.09.22l-1,.11c-.82.1-1.65.22-2.46.34l-.6.08c-1,.15-2.05.32-3.07.51l-.52.1c-.83.15-1.66.31-2.49.49l-.93.2c-.69.15-1.39.3-2.07.47l-1,.24-2,.52-1,.26-2.17.63-.74.22c-1.95.6-3.88,1.26-5.78,2l-.66.25q-1.08.41-2.16.84l-.85.34-2,.83-.86.37-2,.92-.73.34c-.82.39-1.63.79-2.44,1.2l-.19.09,0,0h0q-2.13,1.09-4.2,2.26l-.06,0c-9.92,5.14-35.2,17-56.48,17s-46.56-11.89-56.48-17l-.06,0Q197.69,35,195.56,34h0l0,0-.2-.09c-.81-.41-1.62-.81-2.44-1.2l-.72-.34-2-.92L189.3,31l-2-.83-.85-.34q-1.08-.43-2.16-.84l-.65-.25c-1.91-.7-3.83-1.36-5.78-2l-.75-.22L175,25.94l-1-.26-2-.52-1-.24c-.69-.17-1.38-.32-2.08-.47l-.92-.2c-.83-.18-1.66-.34-2.5-.49l-.51-.1c-1-.19-2.05-.36-3.08-.51l-.59-.08c-.82-.12-1.64-.24-2.47-.34l-1-.11c-.69-.08-1.39-.16-2.09-.22l-1.12-.1-2-.16-1.12-.07L149.3,22l-1,0c-1,0-2.1-.05-3.16-.05h0a110.8,110.8,0,0,0-78.3,32.27,11.49,11.49,0,0,0-.57.57A110.8,110.8,0,0,0,34,133h0c0,1.06,0,2.11,0,3.16,0,.33,0,.65,0,1,0,.72,0,1.45.09,2.18,0,.37,0,.75.07,1.12,0,.68.1,1.36.16,2,0,.37.06.75.1,1.12.06.7.14,1.4.22,2.09,0,.34.07.68.11,1,.1.83.22,1.65.34,2.47,0,.19,0,.39.08.59.15,1,.32,2.06.51,3.08,0,.17.06.34.1.51.15.84.31,1.67.49,2.5.06.31.13.61.2.92.15.7.31,1.39.47,2.08l.24,1c.17.68.34,1.35.52,2,.09.32.18.64.26,1L38.7,165c.08.25.15.5.22.75.6,1.95,1.26,3.87,2,5.78.08.22.17.43.25.65q.4,1.08.84,2.16l.34.85c.27.66.55,1.31.83,2,.12.29.25.57.37.86.3.67.61,1.34.92,2,.11.24.22.48.34.72.39.82.79,1.63,1.2,2.44l.09.2,0,0h0q1.1,2.13,2.26,4.2l0,.06c5.14,9.92,17,35.2,17,56.48s-11.89,46.56-17,56.48l0,.06q-1.17,2.07-2.26,4.2h0l0,0-.09.19c-.41.81-.81,1.62-1.2,2.44-.12.24-.23.48-.34.73-.31.66-.62,1.33-.92,2-.12.29-.25.57-.37.86-.28.65-.56,1.31-.83,2-.11.29-.23.57-.34.85q-.44,1.08-.84,2.16l-.25.66c-.7,1.9-1.36,3.83-2,5.78-.07.24-.14.49-.22.74l-.63,2.17c-.08.32-.17.64-.26,1-.18.67-.35,1.34-.52,2l-.24,1c-.16.69-.32,1.39-.47,2.08-.07.31-.14.62-.2.93-.18.83-.34,1.66-.49,2.49,0,.17-.07.34-.1.52-.19,1-.36,2-.51,3.07,0,.2-.06.4-.08.6-.12.81-.24,1.64-.34,2.46,0,.34-.08.68-.11,1-.08.7-.16,1.39-.22,2.09,0,.37-.07.75-.1,1.13-.06.67-.11,1.35-.16,2,0,.38-.05.75-.07,1.13,0,.72-.07,1.45-.09,2.18,0,.32,0,.65,0,1,0,1.05,0,2.1,0,3.16h0a110.79,110.79,0,0,0,32.27,78.29l.28.29.22.21a110.76,110.76,0,0,0,78.37,32.34h0c1.06,0,2.11,0,3.16-.05.33,0,.65,0,1,0l2.17-.1,1.13-.07,2-.15,1.14-.1,2.07-.22,1-.12c.82-.1,1.63-.21,2.45-.33.2,0,.4,0,.6-.09,1-.15,2.06-.32,3.08-.5l.52-.1,2.48-.49.94-.21c.69-.15,1.38-.3,2.07-.47l1-.24,2-.52,1-.26q1.08-.3,2.16-.63l.75-.22c1.95-.6,3.87-1.25,5.78-2l.66-.25,2.15-.83.85-.35c.66-.27,1.31-.54,2-.83l.86-.37,2-.92.73-.33q1.23-.58,2.43-1.2l.21-.1s0,0,0,0h0c1.42-.72,2.82-1.48,4.2-2.26l.06,0c9.92-5.13,35.2-17,56.48-17s46.56,11.9,56.48,17l.06,0c1.38.78,2.78,1.54,4.2,2.26h0l.2.1q1.22.62,2.43,1.2l.73.33,2,.92.86.37c.65.29,1.31.56,2,.83l.85.35,2.16.83.66.25c1.9.71,3.83,1.36,5.77,2l.76.22c.71.22,1.43.43,2.15.63l1,.26,2,.52,1,.24c.68.17,1.37.32,2.07.47l.93.21,2.49.49.52.1c1,.18,2,.35,3.07.5.2,0,.4.06.6.09l2.46.33,1,.12,2.08.22,1.13.1,2,.15,1.13.07,2.17.1,1,0c1.05,0,2.1.05,3.16.05h0A111.16,111.16,0,0,0,478.58,355.32Z"/><rect class="cls-3" x="147.7" y="131.42" width="51.67" height="246.2" rx="8.43"/><path class="cls-3" d="M371.93,222.7V369.19a8.43,8.43,0,0,1-8.43,8.43H328.68a8.42,8.42,0,0,1-8.42-8.43V305.56a8.43,8.43,0,0,0-8.43-8.43H242.44A8.42,8.42,0,0,1,234,288.7V139.85a8.42,8.42,0,0,1,8.42-8.43h34.82a8.43,8.43,0,0,1,8.43,8.43V237a8.42,8.42,0,0,0,8.42,8.43h17.72a8.43,8.43,0,0,0,8.43-8.43V222.7a8.43,8.43,0,0,1,8.42-8.43H363.5A8.44,8.44,0,0,1,371.93,222.7Z"/><rect class="cls-4" x="147.7" y="121.07" width="51.67" height="246.2" rx="8.43"/><path class="cls-4" d="M371.93,212.35V358.84a8.43,8.43,0,0,1-8.43,8.43H328.68a8.42,8.42,0,0,1-8.42-8.43V295.21a8.43,8.43,0,0,0-8.43-8.43H242.44a8.42,8.42,0,0,1-8.42-8.43V129.5a8.42,8.42,0,0,1,8.42-8.43h34.82a8.43,8.43,0,0,1,8.43,8.43v97.18a8.42,8.42,0,0,0,8.42,8.43h17.72a8.43,8.43,0,0,0,8.43-8.43V212.35a8.42,8.42,0,0,1,8.42-8.42H363.5A8.43,8.43,0,0,1,371.93,212.35Z"/></svg>